<svg width="17" height="17" viewBox="0 0 17 17" fill="none" xmlns="http://www.w3.org/2000/svg">
<path d="M7.47083 13.0736C8.2066 13.0736 8.93516 12.9287 9.61492 12.6471C10.2947 12.3655 10.9123 11.9528 11.4326 11.4326C11.9529 10.9123 12.3656 10.2947 12.6471 9.61491C12.9287 8.93515 13.0736 8.20659 13.0736 7.47083C13.0736 6.73506 12.9287 6.0065 12.6471 5.32674C12.3656 4.64698 11.9529 4.02934 11.4326 3.50907C10.9123 2.98881 10.2947 2.57611 9.61492 2.29454C8.93516 2.01298 8.2066 1.86806 7.47083 1.86806C5.98489 1.86806 4.5598 2.45835 3.50907 3.50907C2.45835 4.55979 1.86806 5.98488 1.86806 7.47083C1.86806 8.95677 2.45835 10.3819 3.50907 11.4326C4.5598 12.4833 5.98489 13.0736 7.47083 13.0736ZM13.3724 12.052L16.7154 15.395C16.8045 15.4812 16.8756 15.5843 16.9245 15.6983C16.9733 15.8122 16.999 15.9348 17 16.0588C17.001 16.1827 16.9772 16.3057 16.9302 16.4204C16.8832 16.5351 16.8138 16.6394 16.726 16.727C16.6383 16.8146 16.534 16.8838 16.4192 16.9307C16.3044 16.9776 16.1814 17.0011 16.0574 17C15.9334 16.9988 15.8109 16.9729 15.697 16.9239C15.5832 16.8749 15.4802 16.8037 15.3941 16.7145L12.0511 13.3715C10.55 14.5367 8.66123 15.0861 6.76932 14.9077C4.87742 14.7294 3.12458 13.8368 1.86764 12.4116C0.610702 10.9864 -0.0558522 9.13573 0.0036689 7.23637C0.06319 5.33701 0.844312 3.53173 2.18802 2.18802C3.53173 0.844311 5.33702 0.06319 7.23638 0.00366889C9.13574 -0.0558522 10.9864 0.610702 12.4116 1.86764C13.8368 3.12458 14.7294 4.87741 14.9078 6.76932C15.0861 8.66122 14.5367 10.55 13.3715 12.0511L13.3724 12.052Z" fill="#181B19"/>
</svg>
