<svg width="70" height="13" viewBox="0 0 70 13" fill="none" xmlns="http://www.w3.org/2000/svg">
<path d="M6.9045 0.307722C6.93362 0.213914 7.06639 0.213914 7.09551 0.307722L8.50023 4.83334C8.51336 4.87565 8.55276 4.90427 8.59705 4.90369L13.3353 4.84116C13.4335 4.83987 13.4745 4.96614 13.3943 5.02282L9.52424 7.75728C9.48806 7.78285 9.47301 7.82916 9.48726 7.87111L11.0109 12.3581C11.0425 12.4511 10.9351 12.5291 10.8564 12.4704L7.05984 9.63472C7.02435 9.60822 6.97565 9.60822 6.94016 9.63472L3.14363 12.4704C3.06493 12.5291 2.95752 12.4511 2.9891 12.3581L4.51275 7.87111C4.527 7.82916 4.51195 7.78285 4.47577 7.75728L0.605728 5.02282C0.525509 4.96614 0.566539 4.83987 0.664753 4.84116L5.40296 4.90369C5.44725 4.90427 5.48665 4.87565 5.49978 4.83334L6.9045 0.307722Z" fill="#FFC34F"/>
<path d="M20.9045 0.307722C20.9336 0.213914 21.0664 0.213914 21.0955 0.307722L22.5002 4.83334C22.5134 4.87565 22.5528 4.90427 22.5971 4.90369L27.3353 4.84116C27.4335 4.83987 27.4745 4.96614 27.3943 5.02282L23.5242 7.75728C23.4881 7.78285 23.473 7.82916 23.4873 7.87111L25.0109 12.3581C25.0425 12.4511 24.9351 12.5291 24.8564 12.4704L21.0598 9.63472C21.0244 9.60822 20.9757 9.60822 20.9402 9.63472L17.1436 12.4704C17.0649 12.5291 16.9575 12.4511 16.9891 12.3581L18.5128 7.87111C18.527 7.82916 18.5119 7.78285 18.4758 7.75728L14.6057 5.02282C14.5255 4.96614 14.5665 4.83987 14.6648 4.84116L19.403 4.90369C19.4473 4.90427 19.4866 4.87565 19.4998 4.83334L20.9045 0.307722Z" fill="#FFC34F"/>
<path d="M34.9045 0.307722C34.9336 0.213914 35.0664 0.213914 35.0955 0.307722L36.5002 4.83334C36.5134 4.87565 36.5528 4.90427 36.597 4.90369L41.3353 4.84116C41.4335 4.83987 41.4745 4.96614 41.3943 5.02282L37.5242 7.75728C37.4881 7.78285 37.473 7.82916 37.4873 7.87111L39.0109 12.3581C39.0425 12.4511 38.9351 12.5291 38.8564 12.4704L35.0598 9.63472C35.0244 9.60822 34.9757 9.60822 34.9402 9.63472L31.1436 12.4704C31.0649 12.5291 30.9575 12.4511 30.9891 12.3581L32.5128 7.87111C32.527 7.82916 32.5119 7.78285 32.4758 7.75728L28.6057 5.02282C28.5255 4.96614 28.5665 4.83987 28.6648 4.84116L33.403 4.90369C33.4473 4.90427 33.4867 4.87565 33.4998 4.83334L34.9045 0.307722Z" fill="#FFC34F"/>
<path d="M48.9045 0.307722C48.9336 0.213914 49.0664 0.213914 49.0955 0.307722L50.5002 4.83334C50.5134 4.87565 50.5528 4.90427 50.597 4.90369L55.3353 4.84116C55.4335 4.83987 55.4745 4.96614 55.3943 5.02282L51.5242 7.75728C51.4881 7.78285 51.473 7.82916 51.4873 7.87111L53.0109 12.3581C53.0425 12.4511 52.9351 12.5291 52.8564 12.4704L49.0598 9.63472C49.0244 9.60822 48.9757 9.60822 48.9402 9.63472L45.1436 12.4704C45.0649 12.5291 44.9575 12.4511 44.9891 12.3581L46.5128 7.87111C46.527 7.82916 46.5119 7.78285 46.4758 7.75728L42.6057 5.02282C42.5255 4.96614 42.5665 4.83987 42.6648 4.84116L47.403 4.90369C47.4473 4.90427 47.4867 4.87565 47.4998 4.83334L48.9045 0.307722Z" fill="#FFC34F"/>
<path d="M62.9045 0.307722C62.9336 0.213914 63.0664 0.213914 63.0955 0.307722L64.5002 4.83334C64.5134 4.87565 64.5528 4.90427 64.5971 4.90369L69.3353 4.84116C69.4335 4.83987 69.4745 4.96614 69.3943 5.02282L65.5242 7.75728C65.4881 7.78285 65.473 7.82916 65.4873 7.87111L67.0109 12.3581C67.0425 12.4511 66.9351 12.5291 66.8564 12.4704L63.0598 9.63472C63.0244 9.60822 62.9757 9.60822 62.9402 9.63472L59.1436 12.4704C59.0649 12.5291 58.9575 12.4511 58.9891 12.3581L60.5128 7.87111C60.527 7.82916 60.5119 7.78285 60.4758 7.75728L56.6057 5.02282C56.5255 4.96614 56.5665 4.83987 56.6648 4.84116L61.403 4.90369C61.4473 4.90427 61.4867 4.87565 61.4998 4.83334L62.9045 0.307722Z" fill="#FFC34F"/>
</svg>
