<svg width="26" height="26" viewBox="0 0 26 26" fill="none" xmlns="http://www.w3.org/2000/svg">
<circle cx="13" cy="13.0002" r="12" stroke="#7000FF" stroke-width="2"/>
<path d="M20.5471 9.01807V13.5962C20.4087 17.621 17.1723 20.8713 13.1474 20.9958C8.91509 21.1341 5.37432 17.8147 5.23601 13.5962V9.01807C6.23185 8.68612 7.25535 8.43716 8.27885 8.25735V13.5685C8.27885 17.3859 9.91093 19.4052 12.8984 19.4052C15.886 19.4052 17.5042 17.3859 17.5042 13.5685V8.25735C18.5277 8.43716 19.5512 8.68612 20.5471 9.01807Z" fill="#7000FF"/>
<path d="M14.2539 11.6598H11.5292V5.32516C11.9718 5.28367 12.4282 5.26984 12.8846 5.26984C13.3549 5.26984 13.7975 5.28367 14.2539 5.32516V11.6598Z" fill="#7000FF"/>
</svg>
